<svg height="32" viewBox="0 0 32 32" width="32" xmlns="http://www.w3.org/2000/svg">
    <path d="m22.962 8.863c-2.628-2.576-4.988-5.407-7.045-8.458l-.123-.193c-2.234 3.193-4.556 5.993-7.083 8.592l.015-.016c-2.645 2.742-5.496 5.245-8.542 7.499l-.184.13c3.341 2.271 6.262 4.682 8.943 7.335l-.005-.005c2.459 2.429 4.71 5.055 6.731 7.858l.125.182c4.324-6.341 9.724-11.606 15.986-15.649l.219-.133c-3.401-2.168-6.359-4.524-9.048-7.153l.01.01zm-4.201 10.135c-1.036 1.024-1.971 2.145-2.792 3.35l-.05.078c-.884-1.215-1.8-2.285-2.793-3.279-1.09-1.075-2.28-2.055-3.552-2.923l-.088-.057c1.326-.969 2.495-1.988 3.571-3.097l.007-.007c1.01-1.051 1.947-2.191 2.794-3.399l.061-.092c.882 1.32 1.842 2.471 2.912 3.51l.005.005c1.089 1.072 2.293 2.034 3.589 2.864l.088.053c-1.412.905-2.641 1.891-3.754 2.994l.002-.002z"
          fill="#F5DC56"/>
</svg>
